<svg viewBox="0 0 200 200"><g fill="#EDEFF0"><circle cx="58" cy="40" r="14"/><circle cx="40" cy="26" r="10"/><circle cx="76" cy="30" r="10"/></g>
<rect x="48" y="58" width="16" height="42" fill="#1B1E22"/><rect x="42" y="52" width="28" height="10" fill="#1B1E22"/>
<rect x="24" y="96" width="112" height="44" rx="20" fill="#1B1E22"/><rect x="118" y="62" width="60" height="78" fill="#1B1E22"/><rect x="130" y="74" width="36" height="24" fill="#E6C77A"/>
<rect x="14" y="140" width="172" height="10" fill="#1B1E22"/><path d="M14 150l-8 22h24z" fill="#1B1E22"/>
<g fill="#C0392B"><circle cx="50" cy="168" r="18"/><circle cx="96" cy="168" r="18"/><circle cx="152" cy="164" r="24"/></g><g fill="#1B1E22"><circle cx="50" cy="168" r="6"/><circle cx="96" cy="168" r="6"/><circle cx="152" cy="164" r="8"/></g><path d="M50 168h102" stroke="#EDEFF0" stroke-width="4"/></svg>
