<svg viewBox="0 0 200 200"><path d="M20 118L92 34l72 84z" fill="#3E5C86"/><path d="M76 52l16-18 16 18-8 8-8-6-8 6z" fill="#FFFFFF"/>
<path d="M4 176V122h120q56 0 70 38l4 16z" fill="#FFFFFF"/><rect x="4" y="160" width="192" height="8" fill="#1F4E9E"/>
<g fill="#1F4E9E"><rect x="14" y="134" width="16" height="12" rx="3"/><rect x="40" y="134" width="16" height="12" rx="3"/><rect x="66" y="134" width="16" height="12" rx="3"/><rect x="92" y="134" width="16" height="12" rx="3"/></g><path d="M140 128q28 2 42 22h-42z" fill="#1F2A36"/>
<rect x="0" y="182" width="200" height="6" fill="#1F2A36"/></svg>
